<?xml version="1.0" ?><svg height="32px" width="32px" viewBox="0 0 64 64" xmlns="http://www.w3.org/2000/svg"><g data-name="video conference" id="video_conference"><circle cx="32" cy="23" r="3" style="fill:#0a1c28"/><path d="M32,26c-2.21,0-4,.9-4,2v6h8V28C36,26.9,34.21,26,32,26Z" style="fill:#0a1c28"/><circle cx="49" cy="9" r="3" style="fill:#0a1c28"/><path d="M49,12c-2.21,0-4,.9-4,2v6h8V14C53,12.9,51.21,12,49,12Z" style="fill:#0a1c28"/><circle cx="20" cy="13" r="3" style="fill:#0a1c28"/><path d="M23.46,17H22a2,2,0,0,0-2,2v5H16V18c0-1.1,1.79-2,4-2A5.5,5.5,0,0,1,23.46,17Z" style="fill:#0a1c28"/><path d="M44,19V35a2,2,0,0,1-2,2H35.24a2,2,0,0,0-1.79,1.11L32,41l-1.45-2.89A2,2,0,0,0,28.76,37H22a2,2,0,0,1-2-2V19a2,2,0,0,1,2-2H42A2,2,0,0,1,44,19Z" style="fill:none;stroke:#0a1c28;stroke-linejoin:round;stroke-width:2px"/><path d="M20,31l-1.45-2.89A2,2,0,0,0,16.76,27H10a2,2,0,0,1-2-2V9a2,2,0,0,1,2-2H30a2,2,0,0,1,2,2v8" style="fill:none;stroke:#0a1c28;stroke-linejoin:round;stroke-width:2px"/><path d="M37,17V5a2,2,0,0,1,2-2H59a2,2,0,0,1,2,2V21a2,2,0,0,1-2,2H52.24a2,2,0,0,0-1.79,1.11L49,27l-1.45-2.89A2,2,0,0,0,45.76,23H44" style="fill:none;stroke:#0a1c28;stroke-linejoin:round;stroke-width:2px"/><path d="M40,47a2,2,0,0,0-2,2v6a2,2,0,0,0,2,2h4a2,2,0,0,1,2,2h0a2,2,0,0,1-2,2H20a2,2,0,0,1-2-2h0a2,2,0,0,1,2-2h4a2,2,0,0,0,2-2V49a2,2,0,0,0-2-2" style="fill:none;stroke:#0a1c28;stroke-linejoin:round;stroke-width:2px"/><path d="M61,21V45a2,2,0,0,1-2,2H5a2,2,0,0,1-2-2V15a2,2,0,0,1,2-2H8" style="fill:none;stroke:#0a1c28;stroke-linejoin:round;stroke-width:2px"/><line style="fill:none;stroke:#0a1c28;stroke-linejoin:round;stroke-width:2px" x1="3" x2="61" y1="43" y2="43"/><line style="fill:none;stroke:#0a1c28;stroke-linejoin:round;stroke-width:2px" x1="6" x2="8" y1="39" y2="39"/><line style="fill:none;stroke:#0a1c28;stroke-linejoin:round;stroke-width:2px" x1="10" x2="12" y1="39" y2="39"/><line style="fill:none;stroke:#0a1c28;stroke-linejoin:round;stroke-width:2px" x1="32" x2="37" y1="13" y2="13"/></g></svg>